<svg width="640" height="512" viewBox="0 0 640 512" fill="none" xmlns="http://www.w3.org/2000/svg">
<g clip-path="url(#clip0_99_14)">
<path d="M112 128C112 98.2958 123.8 69.8081 144.804 48.804C165.808 27.8 194.296 16 224 16C253.704 16 282.192 27.8 303.196 48.804C324.2 69.8081 336 98.2958 336 128C336 157.704 324.2 186.192 303.196 207.196C282.192 228.2 253.704 240 224 240C194.296 240 165.808 228.2 144.804 207.196C123.8 186.192 112 157.704 112 128ZM16 482.3C16 392.637 88.6366 320 178.3 320H269.7C359.363 320 432 392.637 432 482.3C432 489.863 425.863 496 418.3 496H29.7C22.1366 496 16 489.863 16 482.3ZM609.3 496H494.377C495.436 490.844 496 485.495 496 480V472C496 420.492 477.922 373.109 447.813 336H478.7C558.963 336 624 401.037 624 481.3C624 489.43 617.397 496 609.3 496ZM432 240C410.129 240 390.008 232.696 373.849 220.384C390.453 193.508 400 161.844 400 128C400 103.792 395.097 80.6646 386.195 59.6186C399.835 52.2167 415.42 48 432 48C485.063 48 528 90.9366 528 144C528 197.063 485.063 240 432 240Z" stroke="black" stroke-width="32"/>
</g>
<defs>
<clipPath id="clip0_99_14">
<rect width="640" height="512" fill="white"/>
</clipPath>
</defs>
</svg>
