<svg xmlns="http://www.w3.org/2000/svg" xmlns:xlink="http://www.w3.org/1999/xlink" width="24" height="24" id="message"><defs><circle id="a" cx="8.5" cy="10.5" r="1.5"></circle><circle id="b" cx="12.5" cy="10.5" r="1.5"></circle><circle id="c" cx="16.5" cy="10.5" r="1.5"></circle></defs><g fill="none" fill-rule="evenodd"><path stroke="black" stroke-width="1.5px" d="m8.888 21.518 5.985-4.489H20a1.5 1.5 0 0 0 1.5-1.5V5A1.5 1.5 0 0 0 20 3.5H5A1.5 1.5 0 0 0 3.5 5v10.53a1.5 1.5 0 0 0 1.5 1.5h3.088v4.088a.5.5 0 0 0 .8.4z"></path><use fill="#FFF" xlink:href="#a"></use><circle cx="8.5" cy="10.5" r="1" stroke="black"></circle><use fill="#FFF" xlink:href="#b"></use><circle cx="12.5" cy="10.5" r="1" stroke="black"></circle><use fill="#FFF" xlink:href="#c"></use><circle cx="16.5" cy="10.5" r="1" stroke="#4A4A4A"></circle></g></svg>